<svg width="704" height="704" xmlns="http://www.w3.org/2000/svg" xmlns:xlink="http://www.w3.org/1999/xlink" xml:space="preserve" overflow="hidden"><defs><clipPath id="clip0"><rect x="1478" y="570" width="704" height="704"/></clipPath></defs><g clip-path="url(#clip0)" transform="translate(-1478 -570)"><path d="M1830 988.117C1866.45 988.117 1896 958.568 1896 922.117 1896 885.666 1866.45 856.117 1830 856.117 1793.55 856.117 1764 885.666 1764 922.117 1764 958.568 1793.55 988.117 1830 988.117ZM1830 870.784C1858.35 870.784 1881.33 893.767 1881.33 922.117 1881.33 950.468 1858.35 973.451 1830 973.451 1801.65 973.451 1778.67 950.468 1778.67 922.117 1778.68 893.767 1801.65 870.784 1830 870.747Z"/><path d="M1830 826.74C1866.45 826.74 1896 797.191 1896 760.74 1896 724.289 1866.45 694.74 1830 694.74 1793.55 694.74 1764 724.289 1764 760.74 1764 797.191 1793.55 826.74 1830 826.74ZM1830 709.407C1858.35 709.407 1881.33 732.389 1881.33 760.74 1881.33 789.091 1858.35 812.073 1830 812.073 1801.65 812.073 1778.67 789.091 1778.67 760.74 1778.68 732.39 1801.65 709.407 1830 709.37Z"/><path d="M1830 1149.49C1866.45 1149.49 1896 1119.95 1896 1083.49 1896 1047.04 1866.45 1017.49 1830 1017.49 1793.55 1017.49 1764 1047.04 1764 1083.49 1764 1119.95 1793.55 1149.49 1830 1149.49ZM1830 1032.12C1858.35 1032.12 1881.33 1055.11 1881.33 1083.46 1881.33 1111.81 1858.35 1134.79 1830 1134.79 1801.65 1134.79 1778.67 1111.81 1778.67 1083.46 1778.7 1055.12 1801.66 1032.16 1830 1032.12Z"/><path d="M1584.05 1010.04C1584.05 1010.04 1587.35 1056.41 1620.71 1069.61 1631.71 1074.01 1633.91 1087.14 1634.21 1095.43L1634.21 1102.76C1636.32 1122.9 1654.01 1134.59 1676.01 1134.59L1698.01 1134.59 1698.01 1156.83C1698.01 1173.03 1711.14 1186.16 1727.34 1186.16L1932.67 1186.16C1948.87 1186.16 1962 1173.03 1962 1156.83L1962 1134.59 1984 1134.59C2006 1134.59 2023.71 1122.9 2025.8 1102.76L2025.8 1095.43C2026.09 1087.14 2028.29 1074.01 2039.29 1069.61 2072.66 1056.41 2075.96 1010.04 2075.96 1010.04L1962 1010.04 1962 980.586 1984 980.586C2006 980.586 2023.71 968.853 2025.8 948.723L2025.8 941.389C2026.09 933.103 2028.29 919.969 2039.29 915.569 2072.66 902.369 2075.96 856.007 2075.96 856.007L1962 856.007 1962 826.674 1984 826.674C2006 826.674 2023.71 814.941 2025.8 794.759L2025.8 787.426C2026.09 779.139 2028.29 766.013 2039.29 761.605 2072.66 748.405 2075.96 702.044 2075.96 702.044L1962 702.044 1962 687.333C1962 671.133 1948.87 658 1932.67 658L1727.33 658C1711.13 658 1698 671.133 1698 687.333L1698 702 1584.05 702C1584.05 702 1587.35 748.361 1620.71 761.561 1631.71 765.961 1633.91 779.095 1634.21 787.382L1634.21 794.715C1636.32 814.933 1654 826.667 1676 826.667L1698 826.667 1698 856 1584.05 856C1584.05 856 1587.35 902.361 1620.71 915.561 1631.71 919.961 1633.91 933.095 1634.21 941.382L1634.21 948.715C1636.32 968.853 1654.01 980.579 1676.01 980.579L1698.01 980.579 1698.01 1010.04ZM1676 1119.92C1664 1119.92 1650.69 1115.17 1648.87 1101.89L1648.87 1094.91C1648.18 1075.39 1640.11 1061.57 1626.13 1055.97 1612.32 1050.5 1605.35 1036.17 1601.93 1024.71L1698 1024.71 1698 1119.92ZM1962 1024.71 2058.07 1024.71C2054.6 1036.14 2047.6 1050.54 2033.82 1055.99 2019.89 1061.57 2011.82 1075.39 2011.09 1094.91L2011.09 1101.89C2009.28 1115.17 1995.95 1119.92 1983.96 1119.92L1962 1119.92ZM2058.12 870.667C2054.65 882.099 2047.65 896.495 2033.87 901.943 2019.94 907.524 2011.87 921.347 2011.14 940.861L2011.14 947.85C2009.33 961.16 1996 965.919 1984.01 965.919L1962 965.919 1962 870.667ZM2058.12 716.703C2054.66 728.129 2047.68 742.509 2033.84 747.98 2019.91 753.561 2011.84 767.384 2011.11 786.898L2011.11 793.894C2009.35 807.226 1996.02 812 1984 812L1962 812 1962 716.703ZM1712.67 687.333C1712.67 679.233 1719.23 672.667 1727.33 672.667L1932.67 672.667C1940.77 672.667 1947.33 679.233 1947.33 687.333L1947.33 1156.83C1947.33 1164.93 1940.77 1171.49 1932.67 1171.49L1727.33 1171.49C1719.23 1171.49 1712.67 1164.93 1712.67 1156.83ZM1676 812C1664 812 1650.69 807.226 1648.87 793.894L1648.87 786.898C1648.18 767.391 1640.11 753.568 1626.13 747.965 1612.32 742.495 1605.35 728.121 1601.93 716.703L1698 716.703 1698 812ZM1676 965.919C1664 965.919 1650.69 961.16 1648.87 947.857L1648.87 940.869C1648.18 921.347 1640.11 907.531 1626.13 901.921 1612.32 896.458 1605.35 882.121 1601.93 870.667L1698 870.667 1698 965.919Z"/><path d="M1763.5 923.5C1763.5 885.945 1793.94 855.5 1831.5 855.5 1869.06 855.5 1899.5 885.945 1899.5 923.5 1899.5 961.055 1869.06 991.5 1831.5 991.5 1793.94 991.5 1763.5 961.055 1763.5 923.5Z" stroke="#FFFF00" stroke-width="4.58333" stroke-miterlimit="8" fill="#FFFF00" fill-rule="evenodd"/></g></svg>