<svg width="705" height="704" xmlns="http://www.w3.org/2000/svg" xmlns:xlink="http://www.w3.org/1999/xlink" xml:space="preserve" overflow="hidden"><defs><clipPath id="clip0"><rect x="613" y="570" width="705" height="704"/></clipPath></defs><g clip-path="url(#clip0)" transform="translate(-613 -570)"><path d="M352 418.117C388.451 418.117 418 388.568 418 352.117 418 315.666 388.451 286.117 352 286.117 315.549 286.117 286 315.666 286 352.117 286 388.568 315.549 418.117 352 418.117ZM352 300.784C380.351 300.784 403.333 323.767 403.333 352.117 403.333 380.468 380.351 403.451 352 403.451 323.649 403.451 300.667 380.468 300.667 352.117 300.683 323.767 323.65 300.784 352 300.747Z" transform="matrix(1.00142 0 0 1 613 570)"/><path d="M352 256.74C388.451 256.74 418 227.191 418 190.74 418 154.289 388.451 124.74 352 124.74 315.549 124.74 286 154.289 286 190.74 286 227.191 315.549 256.74 352 256.74ZM352 139.407C380.351 139.407 403.333 162.389 403.333 190.74 403.333 219.091 380.351 242.073 352 242.073 323.649 242.073 300.667 219.091 300.667 190.74 300.683 162.39 323.65 139.407 352 139.37Z" transform="matrix(1.00142 0 0 1 613 570)"/><path d="M352 579.495C388.451 579.495 418 549.946 418 513.495 418 477.044 388.451 447.495 352 447.495 315.549 447.495 286 477.044 286 513.495 286 549.946 315.549 579.495 352 579.495ZM352 462.125C380.351 462.125 403.333 485.107 403.333 513.458 403.333 541.809 380.351 564.791 352 564.791 323.649 564.791 300.667 541.809 300.667 513.458 300.703 485.123 323.665 462.161 352 462.125Z" transform="matrix(1.00142 0 0 1 613 570)"/><path d="M106.047 440.044C106.047 440.044 109.347 486.405 142.714 499.605 153.714 504.005 155.914 517.139 156.207 525.426L156.207 532.759C158.319 552.904 176.007 564.586 198.007 564.586L220.007 564.586 220.007 586.828C220.007 603.028 233.141 616.161 249.341 616.161L454.667 616.161C470.867 616.161 484 603.028 484 586.828L484 564.586 506 564.586C528 564.586 545.71 552.904 547.8 532.759L547.8 525.426C548.093 517.139 550.293 504.005 561.293 499.605 594.66 486.405 597.96 440.044 597.96 440.044L484 440.044 484 410.586 506 410.586C528 410.586 545.71 398.853 547.8 378.723L547.8 371.389C548.093 363.103 550.293 349.969 561.293 345.569 594.66 332.369 597.96 286.007 597.96 286.007L484 286.007 484 256.674 506 256.674C528 256.674 545.71 244.941 547.8 224.759L547.8 217.426C548.093 209.139 550.293 196.013 561.293 191.605 594.66 178.405 597.96 132.044 597.96 132.044L484 132.044 484 117.333C484 101.133 470.867 88 454.667 88L249.333 88C233.133 88 220 101.133 220 117.333L220 132 106.047 132C106.047 132 109.347 178.361 142.714 191.561 153.714 195.961 155.914 209.095 156.207 217.382L156.207 224.715C158.319 244.933 176 256.667 198 256.667L220 256.667 220 286 106.047 286C106.047 286 109.347 332.361 142.714 345.561 153.714 349.961 155.914 363.095 156.207 371.382L156.207 378.715C158.319 398.853 176.007 410.579 198.007 410.579L220.007 410.579 220.007 440.037ZM198 549.919C185.995 549.919 172.685 545.167 170.867 531.894L170.867 524.905C170.177 505.391 162.111 491.568 148.133 485.965 134.317 480.502 127.351 466.165 123.933 454.711L220 454.711 220 549.919ZM484 454.711 580.067 454.711C576.598 466.143 569.602 480.539 555.823 485.987 541.889 491.568 533.823 505.391 533.089 524.905L533.089 531.894C531.278 545.175 517.946 549.919 505.956 549.919L484 549.919ZM580.118 300.667C576.649 312.099 569.653 326.495 555.874 331.943 541.941 337.524 533.874 351.347 533.141 370.861L533.141 377.85C531.329 391.16 517.997 395.919 506.007 395.919L484 395.919 484 300.667ZM580.118 146.703C576.664 158.129 569.683 172.509 555.845 177.98 541.911 183.561 533.845 197.384 533.111 216.898L533.111 223.894C531.351 237.226 518.019 242 506 242L484 242 484 146.703ZM234.667 117.333C234.667 109.233 241.233 102.667 249.333 102.667L454.667 102.667C462.767 102.667 469.333 109.233 469.333 117.333L469.333 586.828C469.333 594.928 462.767 601.495 454.667 601.495L249.333 601.495C241.233 601.495 234.667 594.928 234.667 586.828ZM198 242C186.003 242 172.685 237.226 170.867 223.894L170.867 216.898C170.177 197.391 162.111 183.568 148.133 177.965 134.317 172.495 127.351 158.121 123.933 146.703L220 146.703 220 242ZM198 395.919C185.995 395.919 172.685 391.16 170.867 377.857L170.867 370.869C170.177 351.347 162.111 337.531 148.133 331.921 134.317 326.458 127.351 312.121 123.933 300.667L220 300.667 220 395.919Z" transform="matrix(1.00142 0 0 1 613 570)"/><path d="M900.5 759.5C900.5 723.601 929.602 694.5 965.5 694.5 1001.4 694.5 1030.5 723.601 1030.5 759.5 1030.5 795.399 1001.4 824.5 965.5 824.5 929.602 824.5 900.5 795.399 900.5 759.5Z" stroke="#FF0000" stroke-width="4.58333" stroke-miterlimit="8" fill="#FF0000" fill-rule="evenodd"/></g></svg>