<svg width="25" height="25" xmlns="http://www.w3.org/2000/svg" xmlns:xlink="http://www.w3.org/1999/xlink" xml:space="preserve" overflow="hidden"><g transform="translate(-771 -247)"><path d="M783.5 249.604C778.031 249.604 773.604 254.031 773.604 259.5 773.604 264.969 778.031 269.396 783.5 269.396 788.969 269.396 793.396 264.969 793.396 259.5 793.396 254.031 788.969 249.604 783.5 249.604ZM782.979 252.208C783.708 252.208 784.281 252.781 784.281 253.51 784.281 254.24 783.708 254.812 782.979 254.812 782.25 254.812 781.677 254.24 781.677 253.51 781.677 252.781 782.25 252.208 782.979 252.208ZM786.104 266.792 780.896 266.792 780.896 265.229 782.719 265.229 782.719 257.417 781.156 257.417 781.156 255.854 784.281 255.854 784.281 257.417 784.281 265.229 786.104 265.229 786.104 266.792Z"/></g></svg>